<?xml version="1.0" encoding="UTF-8" standalone="no"?><svg xmlns="http://www.w3.org/2000/svg" xmlns:xlink="http://www.w3.org/1999/xlink" contentStyleType="text/css" height="905px" preserveAspectRatio="none" style="width:1727px;height:905px;background:#FFFFFF;" version="1.1" viewBox="0 0 1727 905" width="1727px" zoomAndPan="magnify"><defs/><g><!--MD5=[9dd4eaa2771a2ff8dbee15cc1e732cab]
class Patient--><g id="elem_Patient"><rect codeLine="7" fill="#FFDAB9" height="57.5986" id="Patient" rx="2.5" ry="2.5" style="stroke:#181818;stroke-width:0.5;" width="117" x="757" y="283"/><ellipse cx="772" cy="303.7993" fill="#ADD1B2" rx="11" ry="11" style="stroke:#181818;stroke-width:1.0;"/><path d="M776.4844,309.3931 Q774.8594,310.5181 772.9531,310.5181 Q770.5625,310.5181 769.2969,308.8774 Q768.0469,307.2368 768.0469,304.1743 Q768.0469,301.2524 769.25,299.5493 Q770.4688,297.8306 772.9531,297.8306 Q773.8438,297.8306 774.7031,298.0649 Q775.5781,298.2837 776.2969,298.7993 L775.6563,300.3306 Q774.2969,299.5649 772.9531,299.5649 Q771.4844,299.5649 770.75,300.6431 Q770.0313,301.7212 770.0313,304.1743 Q770.0313,308.7993 772.9531,308.7993 Q774.2344,308.7993 775.875,307.8462 L776.4844,309.3931 Z " fill="#000000"/><text fill="#000000" font-family="sans-serif" font-size="12" font-style="italic" lengthAdjust="spacing" textLength="89" x="784" y="300.0645">«from Person»</text><text fill="#000000" font-family="sans-serif" font-size="14" lengthAdjust="spacing" textLength="66" x="795.5" y="316.6592">Patient:in</text><line style="stroke:#181818;stroke-width:0.5;" x1="758" x2="873" y1="324.5986" y2="324.5986"/><line style="stroke:#181818;stroke-width:0.5;" x1="758" x2="873" y1="332.5986" y2="332.5986"/></g><!--MD5=[86c7c362de55a38b660185a1328fe18d]
class Organization--><g id="elem_Organization"><rect codeLine="8" fill="#FFB6C1" height="57.5986" id="Organization" rx="2.5" ry="2.5" style="stroke:#181818;stroke-width:0.5;" width="198" x="690.5" y="27.5"/><ellipse cx="705.5" cy="48.2993" fill="#ADD1B2" rx="11" ry="11" style="stroke:#181818;stroke-width:1.0;"/><path d="M709.9844,53.8931 Q708.3594,55.0181 706.4531,55.0181 Q704.0625,55.0181 702.7969,53.3774 Q701.5469,51.7368 701.5469,48.6743 Q701.5469,45.7524 702.75,44.0493 Q703.9688,42.3306 706.4531,42.3306 Q707.3438,42.3306 708.2031,42.5649 Q709.0781,42.7837 709.7969,43.2993 L709.1563,44.8306 Q707.7969,44.0649 706.4531,44.0649 Q704.9844,44.0649 704.25,45.1431 Q703.5313,46.2212 703.5313,48.6743 Q703.5313,53.2993 706.4531,53.2993 Q707.7344,53.2993 709.375,52.3462 L709.9844,53.8931 Z " fill="#000000"/><text fill="#000000" font-family="sans-serif" font-size="12" font-style="italic" lengthAdjust="spacing" textLength="133" x="736" y="44.5645">«from Strukturdaten»</text><text fill="#000000" font-family="sans-serif" font-size="14" lengthAdjust="spacing" textLength="166" x="719.5" y="61.1592">Gesundheitseinrichtung</text><line style="stroke:#181818;stroke-width:0.5;" x1="691.5" x2="887.5" y1="69.0986" y2="69.0986"/><line style="stroke:#181818;stroke-width:0.5;" x1="691.5" x2="887.5" y1="77.0986" y2="77.0986"/></g><!--MD5=[0a005aa698e1f18d1a2bb4de0df49e47]
class Encounter--><g id="elem_Encounter"><rect codeLine="9" fill="#98FB98" height="57.5986" id="Encounter" rx="2.5" ry="2.5" style="stroke:#181818;stroke-width:0.5;" width="222" x="678.5" y="581"/><ellipse cx="693.5" cy="601.7993" fill="#ADD1B2" rx="11" ry="11" style="stroke:#181818;stroke-width:1.0;"/><path d="M697.9844,607.3931 Q696.3594,608.5181 694.4531,608.5181 Q692.0625,608.5181 690.7969,606.8774 Q689.5469,605.2368 689.5469,602.1743 Q689.5469,599.2524 690.75,597.5493 Q691.9688,595.8306 694.4531,595.8306 Q695.3438,595.8306 696.2031,596.0649 Q697.0781,596.2837 697.7969,596.7993 L697.1563,598.3306 Q695.7969,597.5649 694.4531,597.5649 Q692.9844,597.5649 692.25,598.6431 Q691.5313,599.7212 691.5313,602.1743 Q691.5313,606.7993 694.4531,606.7993 Q695.7344,606.7993 697.375,605.8462 L697.9844,607.3931 Z " fill="#000000"/><text fill="#000000" font-family="sans-serif" font-size="12" font-style="italic" lengthAdjust="spacing" textLength="68" x="768.5" y="598.0645">«from Fall»</text><text fill="#000000" font-family="sans-serif" font-size="14" lengthAdjust="spacing" textLength="190" x="707.5" y="614.6592">Versorgungsstellenkontakt</text><line style="stroke:#181818;stroke-width:0.5;" x1="679.5" x2="899.5" y1="622.5986" y2="622.5986"/><line style="stroke:#181818;stroke-width:0.5;" x1="679.5" x2="899.5" y1="630.5986" y2="630.5986"/></g><!--MD5=[2b20ad6b0871e32adc53a5f5f33362d0]
entity ##19--><!--MD5=[09a53695e98d4f26e7a054522080af08]
class Section--><g id="elem_Section"><rect codeLine="59" fill="#AFEEEE" height="116.0586" id="Section" rx="2.5" ry="2.5" style="stroke:#181818;stroke-width:0.5;" width="198" x="1044.5" y="254"/><ellipse cx="1059.5" cy="270" fill="#ADD1B2" rx="11" ry="11" style="stroke:#181818;stroke-width:1.0;"/><path d="M1063.9844,275.5938 Q1062.3594,276.7188 1060.4531,276.7188 Q1058.0625,276.7188 1056.7969,275.0781 Q1055.5469,273.4375 1055.5469,270.375 Q1055.5469,267.4531 1056.75,265.75 Q1057.9688,264.0313 1060.4531,264.0313 Q1061.3438,264.0313 1062.2031,264.2656 Q1063.0781,264.4844 1063.7969,265 L1063.1563,266.5313 Q1061.7969,265.7656 1060.4531,265.7656 Q1058.9844,265.7656 1058.25,266.8438 Q1057.5313,267.9219 1057.5313,270.375 Q1057.5313,275 1060.4531,275 Q1061.7344,275 1063.375,274.0469 L1063.9844,275.5938 Z " fill="#000000"/><text fill="#000000" font-family="sans-serif" font-size="14" lengthAdjust="spacing" textLength="166" x="1073.5" y="275.5679">Beobachtungsabschnitt</text><line style="stroke:#181818;stroke-width:0.5;" x1="1045.5" x2="1241.5" y1="286" y2="286"/><ellipse cx="1055.5" cy="300.0073" fill="none" rx="3" ry="3" style="stroke:#038048;stroke-width:1.0;"/><text fill="#000000" font-family="sans-serif" font-size="14" lengthAdjust="spacing" textLength="167" x="1064.5" y="304.0752">Identifikation : identifier</text><ellipse cx="1055.5" cy="317.022" fill="none" rx="3" ry="3" style="stroke:#038048;stroke-width:1.0;"/><text fill="#000000" font-family="sans-serif" font-size="14" lengthAdjust="spacing" textLength="85" x="1064.5" y="321.0898">Code : code</text><ellipse cx="1055.5" cy="334.0366" fill="none" rx="3" ry="3" style="stroke:#038048;stroke-width:1.0;"/><text fill="#000000" font-family="sans-serif" font-size="14" lengthAdjust="spacing" textLength="88" x="1064.5" y="338.1045">Title : String</text><ellipse cx="1055.5" cy="351.0513" fill="none" rx="3" ry="3" style="stroke:#038048;stroke-width:1.0;"/><text fill="#000000" font-family="sans-serif" font-size="14" lengthAdjust="spacing" textLength="91" x="1064.5" y="355.1191">Text : String</text><line style="stroke:#181818;stroke-width:0.5;" x1="1045.5" x2="1241.5" y1="362.0586" y2="362.0586"/></g><!--MD5=[97b6626ec17a9ebbaf34e61fca9df831]
class PathoFinding--><g id="elem_PathoFinding"><rect codeLine="80" fill="#AFEEEE" height="184.1172" id="PathoFinding" rx="2.5" ry="2.5" style="stroke:#181818;stroke-width:0.5;" width="244" x="1430.5" y="220"/><ellipse cx="1464.4" cy="236" fill="#ADD1B2" rx="11" ry="11" style="stroke:#181818;stroke-width:1.0;"/><path d="M1468.8844,241.5938 Q1467.2594,242.7188 1465.3531,242.7188 Q1462.9625,242.7188 1461.6969,241.0781 Q1460.4469,239.4375 1460.4469,236.375 Q1460.4469,233.4531 1461.65,231.75 Q1462.8688,230.0313 1465.3531,230.0313 Q1466.2438,230.0313 1467.1031,230.2656 Q1467.9781,230.4844 1468.6969,231 L1468.0563,232.5313 Q1466.6969,231.7656 1465.3531,231.7656 Q1463.8844,231.7656 1463.15,232.8438 Q1462.4313,233.9219 1462.4313,236.375 Q1462.4313,241 1465.3531,241 Q1466.6344,241 1468.275,240.0469 L1468.8844,241.5938 Z " fill="#000000"/><text fill="#000000" font-family="sans-serif" font-size="14" lengthAdjust="spacing" textLength="170" x="1482.6" y="241.5679">GenerischeBeobachtung</text><line style="stroke:#181818;stroke-width:0.5;" x1="1431.5" x2="1673.5" y1="252" y2="252"/><ellipse cx="1441.5" cy="266.0073" fill="none" rx="3" ry="3" style="stroke:#038048;stroke-width:1.0;"/><text fill="#000000" font-family="sans-serif" font-size="14" lengthAdjust="spacing" textLength="119" x="1450.5" y="270.0752">Identifikation : id</text><ellipse cx="1441.5" cy="283.022" fill="none" rx="3" ry="3" style="stroke:#038048;stroke-width:1.0;"/><text fill="#000000" font-family="sans-serif" font-size="14" lengthAdjust="spacing" textLength="85" x="1450.5" y="287.0898">Code : code</text><ellipse cx="1441.5" cy="300.0366" fill="none" rx="3" ry="3" style="stroke:#038048;stroke-width:1.0;"/><text fill="#000000" font-family="sans-serif" font-size="14" lengthAdjust="spacing" textLength="96" x="1450.5" y="304.1045">Status : code</text><ellipse cx="1441.5" cy="317.0513" fill="none" rx="3" ry="3" style="stroke:#038048;stroke-width:1.0;"/><text fill="#000000" font-family="sans-serif" font-size="14" lengthAdjust="spacing" textLength="91" x="1450.5" y="321.1191">Text : String</text><ellipse cx="1441.5" cy="334.0659" fill="none" rx="3" ry="3" style="stroke:#038048;stroke-width:1.0;"/><text fill="#000000" font-family="sans-serif" font-size="14" lengthAdjust="spacing" textLength="152" x="1450.5" y="338.1338">Befundzeit : datetime</text><ellipse cx="1441.5" cy="351.0806" fill="none" rx="3" ry="3" style="stroke:#038048;stroke-width:1.0;"/><text fill="#000000" font-family="sans-serif" font-size="14" lengthAdjust="spacing" textLength="112" x="1450.5" y="355.1484">Prioritaet : code</text><ellipse cx="1441.5" cy="368.0952" fill="none" rx="3" ry="3" style="stroke:#038048;stroke-width:1.0;"/><text fill="#000000" font-family="sans-serif" font-size="14" lengthAdjust="spacing" textLength="111" x="1450.5" y="372.1631">Wert : Quantity</text><ellipse cx="1441.5" cy="385.1099" fill="none" rx="3" ry="3" style="stroke:#038048;stroke-width:1.0;"/><text fill="#000000" font-family="sans-serif" font-size="14" lengthAdjust="spacing" textLength="218" x="1450.5" y="389.1777">Untersuchungsmethode : code</text><line style="stroke:#181818;stroke-width:0.5;" x1="1431.5" x2="1673.5" y1="396.1172" y2="396.1172"/></g><!--MD5=[162006c598b688125b14d47af79fc6d8]
class Specimen--><g id="elem_Specimen"><rect codeLine="93" fill="#AFEEEE" height="150.0879" id="Specimen" rx="2.5" ry="2.5" style="stroke:#181818;stroke-width:0.5;" width="272" x="1070.5" y="535"/><ellipse cx="1182.25" cy="551" fill="#ADD1B2" rx="11" ry="11" style="stroke:#181818;stroke-width:1.0;"/><path d="M1186.7344,556.5938 Q1185.1094,557.7188 1183.2031,557.7188 Q1180.8125,557.7188 1179.5469,556.0781 Q1178.2969,554.4375 1178.2969,551.375 Q1178.2969,548.4531 1179.5,546.75 Q1180.7188,545.0313 1183.2031,545.0313 Q1184.0938,545.0313 1184.9531,545.2656 Q1185.8281,545.4844 1186.5469,546 L1185.9063,547.5313 Q1184.5469,546.7656 1183.2031,546.7656 Q1181.7344,546.7656 1181,547.8438 Q1180.2813,548.9219 1180.2813,551.375 Q1180.2813,556 1183.2031,556 Q1184.4844,556 1186.125,555.0469 L1186.7344,556.5938 Z " fill="#000000"/><text fill="#000000" font-family="sans-serif" font-size="14" lengthAdjust="spacing" textLength="40" x="1202.75" y="556.5679">Probe</text><line style="stroke:#181818;stroke-width:0.5;" x1="1071.5" x2="1341.5" y1="567" y2="567"/><ellipse cx="1081.5" cy="581.0073" fill="none" rx="3" ry="3" style="stroke:#038048;stroke-width:1.0;"/><text fill="#000000" font-family="sans-serif" font-size="14" lengthAdjust="spacing" textLength="113" x="1090.5" y="585.0752">Identifikator : id</text><ellipse cx="1081.5" cy="598.022" fill="none" rx="3" ry="3" style="stroke:#038048;stroke-width:1.0;"/><text fill="#000000" font-family="sans-serif" font-size="14" lengthAdjust="spacing" textLength="96" x="1090.5" y="602.0898">Status : code</text><ellipse cx="1081.5" cy="615.0366" fill="none" rx="3" ry="3" style="stroke:#038048;stroke-width:1.0;"/><text fill="#000000" font-family="sans-serif" font-size="14" lengthAdjust="spacing" textLength="118" x="1090.5" y="619.1045">Probenart : code</text><ellipse cx="1081.5" cy="632.0513" fill="none" rx="3" ry="3" style="stroke:#038048;stroke-width:1.0;"/><text fill="#000000" font-family="sans-serif" font-size="14" lengthAdjust="spacing" textLength="246" x="1090.5" y="636.1191">Laboreingangszeitpunkt : datetime</text><ellipse cx="1081.5" cy="649.0659" fill="none" rx="3" ry="3" style="stroke:#038048;stroke-width:1.0;"/><text fill="#000000" font-family="sans-serif" font-size="14" lengthAdjust="spacing" textLength="141" x="1090.5" y="653.1338">Kommentar : String</text><ellipse cx="1081.5" cy="666.0806" fill="none" rx="3" ry="3" style="stroke:#038048;stroke-width:1.0;"/><text fill="#000000" font-family="sans-serif" font-size="14" lengthAdjust="spacing" textLength="147" x="1090.5" y="670.1484">Eigenschaften : code</text><line style="stroke:#181818;stroke-width:0.5;" x1="1071.5" x2="1341.5" y1="677.0879" y2="677.0879"/></g><!--MD5=[c160724f8e3bb89ca8141a12554ac2e3]
class Collection--><g id="elem_Collection"><rect codeLine="107" fill="#AFEEEE" height="99.0439" id="Collection" rx="2.5" ry="2.5" style="stroke:#181818;stroke-width:0.5;" width="240" x="1078.5" y="790.5"/><ellipse cx="1158.75" cy="806.5" fill="#ADD1B2" rx="11" ry="11" style="stroke:#181818;stroke-width:1.0;"/><path d="M1163.2344,812.0938 Q1161.6094,813.2188 1159.7031,813.2188 Q1157.3125,813.2188 1156.0469,811.5781 Q1154.7969,809.9375 1154.7969,806.875 Q1154.7969,803.9531 1156,802.25 Q1157.2188,800.5313 1159.7031,800.5313 Q1160.5938,800.5313 1161.4531,800.7656 Q1162.3281,800.9844 1163.0469,801.5 L1162.4063,803.0313 Q1161.0469,802.2656 1159.7031,802.2656 Q1158.2344,802.2656 1157.5,803.3438 Q1156.7813,804.4219 1156.7813,806.875 Q1156.7813,811.5 1159.7031,811.5 Q1160.9844,811.5 1162.625,810.5469 L1163.2344,812.0938 Z " fill="#000000"/><text fill="#000000" font-family="sans-serif" font-size="14" lengthAdjust="spacing" textLength="71" x="1179.25" y="812.0679">Entnahme</text><line style="stroke:#181818;stroke-width:0.5;" x1="1079.5" x2="1317.5" y1="822.5" y2="822.5"/><ellipse cx="1089.5" cy="836.5073" fill="none" rx="3" ry="3" style="stroke:#038048;stroke-width:1.0;"/><text fill="#000000" font-family="sans-serif" font-size="14" lengthAdjust="spacing" textLength="214" x="1098.5" y="840.5752">Entnahmezeitpunkt : datetime</text><ellipse cx="1089.5" cy="853.522" fill="none" rx="3" ry="3" style="stroke:#038048;stroke-width:1.0;"/><text fill="#000000" font-family="sans-serif" font-size="14" lengthAdjust="spacing" textLength="110" x="1098.5" y="857.5898">Herkunft : code</text><ellipse cx="1089.5" cy="870.5366" fill="none" rx="3" ry="3" style="stroke:#038048;stroke-width:1.0;"/><text fill="#000000" font-family="sans-serif" font-size="14" lengthAdjust="spacing" textLength="197" x="1098.5" y="874.6045">Gewinnungsmethode : code</text><line style="stroke:#181818;stroke-width:0.5;" x1="1079.5" x2="1317.5" y1="881.5439" y2="881.5439"/></g><!--MD5=[a030fa97ffb865708cae79f6847e8968]
class Condition--><g id="elem_Condition"><rect codeLine="12" fill="#7B68EE" height="57.5986" id="Condition" rx="2.5" ry="2.5" style="stroke:#181818;stroke-width:0.5;" width="131" x="7" y="283"/><ellipse cx="22" cy="303.7993" fill="#ADD1B2" rx="11" ry="11" style="stroke:#181818;stroke-width:1.0;"/><path d="M26.4844,309.3931 Q24.8594,310.5181 22.9531,310.5181 Q20.5625,310.5181 19.2969,308.8774 Q18.0469,307.2368 18.0469,304.1743 Q18.0469,301.2524 19.25,299.5493 Q20.4688,297.8306 22.9531,297.8306 Q23.8438,297.8306 24.7031,298.0649 Q25.5781,298.2837 26.2969,298.7993 L25.6563,300.3306 Q24.2969,299.5649 22.9531,299.5649 Q21.4844,299.5649 20.75,300.6431 Q20.0313,301.7212 20.0313,304.1743 Q20.0313,308.7993 22.9531,308.7993 Q24.2344,308.7993 25.875,307.8462 L26.4844,309.3931 Z " fill="#000000"/><text fill="#000000" font-family="sans-serif" font-size="12" font-style="italic" lengthAdjust="spacing" textLength="103" x="34" y="300.0645">«from Diagnose»</text><text fill="#000000" font-family="sans-serif" font-size="14" lengthAdjust="spacing" textLength="65" x="53" y="316.6592">Diagnose</text><line style="stroke:#181818;stroke-width:0.5;" x1="8" x2="137" y1="324.5986" y2="324.5986"/><line style="stroke:#181818;stroke-width:0.5;" x1="8" x2="137" y1="332.5986" y2="332.5986"/></g><!--MD5=[379586eb6f7814f351bca7a3d76cac98]
class PathoReport--><g id="elem_PathoReport"><rect codeLine="44" fill="#48D1CC" height="252.1758" id="PathoReport" rx="2.5" ry="2.5" style="stroke:#181818;stroke-width:0.5;" width="278" x="308.5" y="186"/><ellipse cx="399.25" cy="202" fill="#ADD1B2" rx="11" ry="11" style="stroke:#181818;stroke-width:1.0;"/><path d="M403.7344,207.5938 Q402.1094,208.7188 400.2031,208.7188 Q397.8125,208.7188 396.5469,207.0781 Q395.2969,205.4375 395.2969,202.375 Q395.2969,199.4531 396.5,197.75 Q397.7188,196.0313 400.2031,196.0313 Q401.0938,196.0313 401.9531,196.2656 Q402.8281,196.4844 403.5469,197 L402.9063,198.5313 Q401.5469,197.7656 400.2031,197.7656 Q398.7344,197.7656 398,198.8438 Q397.2813,199.9219 397.2813,202.375 Q397.2813,207 400.2031,207 Q401.4844,207 403.125,206.0469 L403.7344,207.5938 Z " fill="#000000"/><text fill="#000000" font-family="sans-serif" font-size="14" lengthAdjust="spacing" textLength="88" x="419.75" y="207.5679">PathoReport</text><line style="stroke:#181818;stroke-width:0.5;" x1="309.5" x2="585.5" y1="218" y2="218"/><ellipse cx="319.5" cy="232.0073" fill="none" rx="3" ry="3" style="stroke:#038048;stroke-width:1.0;"/><text fill="#000000" font-family="sans-serif" font-size="14" lengthAdjust="spacing" textLength="113" x="328.5" y="236.0752">Identifikator : id</text><ellipse cx="319.5" cy="249.022" fill="none" rx="3" ry="3" style="stroke:#038048;stroke-width:1.0;"/><text fill="#000000" font-family="sans-serif" font-size="14" lengthAdjust="spacing" textLength="116" x="328.5" y="253.0898">SetID : identifier</text><ellipse cx="319.5" cy="266.0366" fill="none" rx="3" ry="3" style="stroke:#038048;stroke-width:1.0;"/><text fill="#000000" font-family="sans-serif" font-size="14" lengthAdjust="spacing" textLength="153" x="328.5" y="270.1045">Versionsnummer : int</text><ellipse cx="319.5" cy="283.0513" fill="none" rx="3" ry="3" style="stroke:#038048;stroke-width:1.0;"/><text fill="#000000" font-family="sans-serif" font-size="14" lengthAdjust="spacing" textLength="88" x="328.5" y="287.1191">Titel : String</text><ellipse cx="319.5" cy="300.0659" fill="none" rx="3" ry="3" style="stroke:#038048;stroke-width:1.0;"/><text fill="#000000" font-family="sans-serif" font-size="14" lengthAdjust="spacing" textLength="85" x="328.5" y="304.1338">Code : code</text><ellipse cx="319.5" cy="317.0806" fill="none" rx="3" ry="3" style="stroke:#038048;stroke-width:1.0;"/><text fill="#000000" font-family="sans-serif" font-size="14" lengthAdjust="spacing" textLength="96" x="328.5" y="321.1484">Status : code</text><ellipse cx="319.5" cy="334.0952" fill="none" rx="3" ry="3" style="stroke:#038048;stroke-width:1.0;"/><text fill="#000000" font-family="sans-serif" font-size="14" lengthAdjust="spacing" textLength="238" x="328.5" y="338.1631">Dokumentationsdatum : datetime</text><ellipse cx="319.5" cy="351.1099" fill="none" rx="3" ry="3" style="stroke:#038048;stroke-width:1.0;"/><text fill="#000000" font-family="sans-serif" font-size="14" lengthAdjust="spacing" textLength="125" x="328.5" y="355.1777">Autor : Reference</text><ellipse cx="319.5" cy="368.1245" fill="none" rx="3" ry="3" style="stroke:#038048;stroke-width:1.0;"/><text fill="#000000" font-family="sans-serif" font-size="14" lengthAdjust="spacing" textLength="223" x="328.5" y="372.1924">LegalerAuthetikator : Reference</text><ellipse cx="319.5" cy="385.1392" fill="none" rx="3" ry="3" style="stroke:#038048;stroke-width:1.0;"/><text fill="#000000" font-family="sans-serif" font-size="14" lengthAdjust="spacing" textLength="175" x="328.5" y="389.207">ServiceEvent : Reference</text><ellipse cx="319.5" cy="402.1538" fill="none" rx="3" ry="3" style="stroke:#038048;stroke-width:1.0;"/><text fill="#000000" font-family="sans-serif" font-size="14" lengthAdjust="spacing" textLength="252" x="328.5" y="406.2217">zugehoerigesDokument : Reference</text><ellipse cx="319.5" cy="419.1685" fill="none" rx="3" ry="3" style="stroke:#038048;stroke-width:1.0;"/><text fill="#000000" font-family="sans-serif" font-size="14" lengthAdjust="spacing" textLength="141" x="328.5" y="423.2363">Kommentar : String</text><line style="stroke:#181818;stroke-width:0.5;" x1="309.5" x2="585.5" y1="430.1758" y2="430.1758"/></g><!--MD5=[c9e2360ee39a0f374d2675149b859c89]
class ServiceRequest--><g id="elem_ServiceRequest"><rect codeLine="67" fill="#AFEEEE" height="184.1172" id="ServiceRequest" rx="2.5" ry="2.5" style="stroke:#181818;stroke-width:0.5;" width="285" x="223" y="518"/><ellipse cx="307.25" cy="534" fill="#ADD1B2" rx="11" ry="11" style="stroke:#181818;stroke-width:1.0;"/><path d="M311.7344,539.5938 Q310.1094,540.7188 308.2031,540.7188 Q305.8125,540.7188 304.5469,539.0781 Q303.2969,537.4375 303.2969,534.375 Q303.2969,531.4531 304.5,529.75 Q305.7188,528.0313 308.2031,528.0313 Q309.0938,528.0313 309.9531,528.2656 Q310.8281,528.4844 311.5469,529 L310.9063,530.5313 Q309.5469,529.7656 308.2031,529.7656 Q306.7344,529.7656 306,530.8438 Q305.2813,531.9219 305.2813,534.375 Q305.2813,539 308.2031,539 Q309.4844,539 311.125,538.0469 L311.7344,539.5938 Z " fill="#000000"/><text fill="#000000" font-family="sans-serif" font-size="14" lengthAdjust="spacing" textLength="108" x="327.75" y="539.5679">ServiceRequest</text><line style="stroke:#181818;stroke-width:0.5;" x1="224" x2="507" y1="550" y2="550"/><ellipse cx="234" cy="564.0073" fill="none" rx="3" ry="3" style="stroke:#038048;stroke-width:1.0;"/><text fill="#000000" font-family="sans-serif" font-size="14" lengthAdjust="spacing" textLength="212" x="243" y="568.0752">AuftragsgruppenID : identifier</text><ellipse cx="234" cy="581.022" fill="none" rx="3" ry="3" style="stroke:#038048;stroke-width:1.0;"/><text fill="#000000" font-family="sans-serif" font-size="14" lengthAdjust="spacing" textLength="246" x="243" y="585.0898">AuftraggeberAuftragsID : identifier</text><ellipse cx="234" cy="598.0366" fill="none" rx="3" ry="3" style="stroke:#038048;stroke-width:1.0;"/><text fill="#000000" font-family="sans-serif" font-size="14" lengthAdjust="spacing" textLength="259" x="243" y="602.1045">AuftragnehmerAuftragsID : identifier</text><ellipse cx="234" cy="615.0513" fill="none" rx="3" ry="3" style="stroke:#038048;stroke-width:1.0;"/><text fill="#000000" font-family="sans-serif" font-size="14" lengthAdjust="spacing" textLength="96" x="243" y="619.1191">Status : code</text><ellipse cx="234" cy="632.0659" fill="none" rx="3" ry="3" style="stroke:#038048;stroke-width:1.0;"/><text fill="#000000" font-family="sans-serif" font-size="14" lengthAdjust="spacing" textLength="207" x="243" y="636.1338">KlinischeAngaben : Reference</text><ellipse cx="234" cy="649.0806" fill="none" rx="3" ry="3" style="stroke:#038048;stroke-width:1.0;"/><text fill="#000000" font-family="sans-serif" font-size="14" lengthAdjust="spacing" textLength="133" x="243" y="653.1484">Patient : Reference</text><ellipse cx="234" cy="666.0952" fill="none" rx="3" ry="3" style="stroke:#038048;stroke-width:1.0;"/><text fill="#000000" font-family="sans-serif" font-size="14" lengthAdjust="spacing" textLength="154" x="243" y="670.1631">Einsender : Reference</text><ellipse cx="234" cy="683.1099" fill="none" rx="3" ry="3" style="stroke:#038048;stroke-width:1.0;"/><text fill="#000000" font-family="sans-serif" font-size="14" lengthAdjust="spacing" textLength="210" x="243" y="687.1777">Probenentnehmer : Reference</text><line style="stroke:#181818;stroke-width:0.5;" x1="224" x2="507" y1="694.1172" y2="694.1172"/></g><!--MD5=[c1cb23d6e432624f6cb8edc9afe0423f]
class Processing--><g id="elem_Processing"><rect codeLine="115" fill="#AFEEEE" height="116.0586" id="Processing" rx="2.5" ry="2.5" style="stroke:#181818;stroke-width:0.5;" width="232" x="1488.5" y="782"/><ellipse cx="1557.75" cy="798" fill="#ADD1B2" rx="11" ry="11" style="stroke:#181818;stroke-width:1.0;"/><path d="M1562.2344,803.5938 Q1560.6094,804.7188 1558.7031,804.7188 Q1556.3125,804.7188 1555.0469,803.0781 Q1553.7969,801.4375 1553.7969,798.375 Q1553.7969,795.4531 1555,793.75 Q1556.2188,792.0313 1558.7031,792.0313 Q1559.5938,792.0313 1560.4531,792.2656 Q1561.3281,792.4844 1562.0469,793 L1561.4063,794.5313 Q1560.0469,793.7656 1558.7031,793.7656 Q1557.2344,793.7656 1556.5,794.8438 Q1555.7813,795.9219 1555.7813,798.375 Q1555.7813,803 1558.7031,803 Q1559.9844,803 1561.625,802.0469 L1562.2344,803.5938 Z " fill="#000000"/><text fill="#000000" font-family="sans-serif" font-size="14" lengthAdjust="spacing" textLength="85" x="1578.25" y="803.5679">Bearbeitung</text><line style="stroke:#181818;stroke-width:0.5;" x1="1489.5" x2="1719.5" y1="814" y2="814"/><ellipse cx="1499.5" cy="828.0073" fill="none" rx="3" ry="3" style="stroke:#038048;stroke-width:1.0;"/><text fill="#000000" font-family="sans-serif" font-size="14" lengthAdjust="spacing" textLength="206" x="1508.5" y="832.0752">Bearbeitungsprozedur : code</text><ellipse cx="1499.5" cy="845.022" fill="none" rx="3" ry="3" style="stroke:#038048;stroke-width:1.0;"/><text fill="#000000" font-family="sans-serif" font-size="14" lengthAdjust="spacing" textLength="158" x="1508.5" y="849.0898">Elternprobe : identifier</text><ellipse cx="1499.5" cy="862.0366" fill="none" rx="3" ry="3" style="stroke:#038048;stroke-width:1.0;"/><text fill="#000000" font-family="sans-serif" font-size="14" lengthAdjust="spacing" textLength="105" x="1508.5" y="866.1045">Additive : code</text><ellipse cx="1499.5" cy="879.0513" fill="none" rx="3" ry="3" style="stroke:#038048;stroke-width:1.0;"/><text fill="#000000" font-family="sans-serif" font-size="14" lengthAdjust="spacing" textLength="154" x="1508.5" y="883.1191">Beschreibung : String</text><line style="stroke:#181818;stroke-width:0.5;" x1="1489.5" x2="1719.5" y1="890.0586" y2="890.0586"/></g><!--MD5=[e9a58730c562b34349daa605d1ed6662]
class Container--><g id="elem_Container"><rect codeLine="124" fill="#AFEEEE" height="99.0439" id="Container" rx="2.5" ry="2.5" style="stroke:#181818;stroke-width:0.5;" width="186" x="1530.5" y="560.5"/><ellipse cx="1585.25" cy="576.5" fill="#ADD1B2" rx="11" ry="11" style="stroke:#181818;stroke-width:1.0;"/><path d="M1589.7344,582.0938 Q1588.1094,583.2188 1586.2031,583.2188 Q1583.8125,583.2188 1582.5469,581.5781 Q1581.2969,579.9375 1581.2969,576.875 Q1581.2969,573.9531 1582.5,572.25 Q1583.7188,570.5313 1586.2031,570.5313 Q1587.0938,570.5313 1587.9531,570.7656 Q1588.8281,570.9844 1589.5469,571.5 L1588.9063,573.0313 Q1587.5469,572.2656 1586.2031,572.2656 Q1584.7344,572.2656 1584,573.3438 Q1583.2813,574.4219 1583.2813,576.875 Q1583.2813,581.5 1586.2031,581.5 Q1587.4844,581.5 1589.125,580.5469 L1589.7344,582.0938 Z " fill="#000000"/><text fill="#000000" font-family="sans-serif" font-size="14" lengthAdjust="spacing" textLength="68" x="1605.75" y="582.0679">Container</text><line style="stroke:#181818;stroke-width:0.5;" x1="1531.5" x2="1715.5" y1="592.5" y2="592.5"/><ellipse cx="1541.5" cy="606.5073" fill="none" rx="3" ry="3" style="stroke:#038048;stroke-width:1.0;"/><text fill="#000000" font-family="sans-serif" font-size="14" lengthAdjust="spacing" textLength="160" x="1550.5" y="610.5752">ContainerID : identifier</text><ellipse cx="1541.5" cy="623.522" fill="none" rx="3" ry="3" style="stroke:#038048;stroke-width:1.0;"/><text fill="#000000" font-family="sans-serif" font-size="14" lengthAdjust="spacing" textLength="105" x="1550.5" y="627.5898">Additive : code</text><ellipse cx="1541.5" cy="640.5366" fill="none" rx="3" ry="3" style="stroke:#038048;stroke-width:1.0;"/><text fill="#000000" font-family="sans-serif" font-size="14" lengthAdjust="spacing" textLength="143" x="1550.5" y="644.6045">ContainerTyp : code</text><line style="stroke:#181818;stroke-width:0.5;" x1="1531.5" x2="1715.5" y1="651.5439" y2="651.5439"/></g><!--MD5=[9d93cc8568a88ed605ddd50c0dd874e2]
class Media--><g id="elem_Media"><rect codeLine="132" fill="#AFEEEE" height="82.0293" id="Media" rx="2.5" ry="2.5" style="stroke:#181818;stroke-width:0.5;" width="187" x="1459" y="15.5"/><ellipse cx="1488.85" cy="31.5" fill="#ADD1B2" rx="11" ry="11" style="stroke:#181818;stroke-width:1.0;"/><path d="M1493.3344,37.0938 Q1491.7094,38.2188 1489.8031,38.2188 Q1487.4125,38.2188 1486.1469,36.5781 Q1484.8969,34.9375 1484.8969,31.875 Q1484.8969,28.9531 1486.1,27.25 Q1487.3188,25.5313 1489.8031,25.5313 Q1490.6938,25.5313 1491.5531,25.7656 Q1492.4281,25.9844 1493.1469,26.5 L1492.5063,28.0313 Q1491.1469,27.2656 1489.8031,27.2656 Q1488.3344,27.2656 1487.6,28.3438 Q1486.8813,29.4219 1486.8813,31.875 Q1486.8813,36.5 1489.8031,36.5 Q1491.0844,36.5 1492.725,35.5469 L1493.3344,37.0938 Z " fill="#000000"/><text fill="#000000" font-family="sans-serif" font-size="14" lengthAdjust="spacing" textLength="122" x="1506.15" y="37.0679">EingebettetesBild</text><line style="stroke:#181818;stroke-width:0.5;" x1="1460" x2="1645" y1="47.5" y2="47.5"/><ellipse cx="1470" cy="61.5073" fill="none" rx="3" ry="3" style="stroke:#038048;stroke-width:1.0;"/><text fill="#000000" font-family="sans-serif" font-size="14" lengthAdjust="spacing" textLength="161" x="1479" y="65.5752">Identifikator : identifier</text><ellipse cx="1470" cy="78.522" fill="none" rx="3" ry="3" style="stroke:#038048;stroke-width:1.0;"/><text fill="#000000" font-family="sans-serif" font-size="14" lengthAdjust="spacing" textLength="94" x="1479" y="82.5898">Wert : String</text><line style="stroke:#181818;stroke-width:0.5;" x1="1460" x2="1645" y1="89.5293" y2="89.5293"/></g><!--MD5=[2b2279a64242dc23959805f698fe2e3f]
class ROI--><g id="elem_ROI"><rect codeLine="139" fill="#AFEEEE" height="99.0439" id="ROI" rx="2.5" ry="2.5" style="stroke:#181818;stroke-width:0.5;" width="187" x="1102" y="7"/><ellipse cx="1132.75" cy="23" fill="#ADD1B2" rx="11" ry="11" style="stroke:#181818;stroke-width:1.0;"/><path d="M1137.2344,28.5938 Q1135.6094,29.7188 1133.7031,29.7188 Q1131.3125,29.7188 1130.0469,28.0781 Q1128.7969,26.4375 1128.7969,23.375 Q1128.7969,20.4531 1130,18.75 Q1131.2188,17.0313 1133.7031,17.0313 Q1134.5938,17.0313 1135.4531,17.2656 Q1136.3281,17.4844 1137.0469,18 L1136.4063,19.5313 Q1135.0469,18.7656 1133.7031,18.7656 Q1132.2344,18.7656 1131.5,19.8438 Q1130.7813,20.9219 1130.7813,23.375 Q1130.7813,28 1133.7031,28 Q1134.9844,28 1136.625,27.0469 L1137.2344,28.5938 Z " fill="#000000"/><text fill="#000000" font-family="sans-serif" font-size="14" lengthAdjust="spacing" textLength="120" x="1150.25" y="28.5679">RegionOfInterest</text><line style="stroke:#181818;stroke-width:0.5;" x1="1103" x2="1288" y1="39" y2="39"/><ellipse cx="1113" cy="53.0073" fill="none" rx="3" ry="3" style="stroke:#038048;stroke-width:1.0;"/><text fill="#000000" font-family="sans-serif" font-size="14" lengthAdjust="spacing" textLength="161" x="1122" y="57.0752">Identifikator : identifier</text><ellipse cx="1113" cy="70.022" fill="none" rx="3" ry="3" style="stroke:#038048;stroke-width:1.0;"/><text fill="#000000" font-family="sans-serif" font-size="14" lengthAdjust="spacing" textLength="85" x="1122" y="74.0898">Code : code</text><ellipse cx="1113" cy="87.0366" fill="none" rx="3" ry="3" style="stroke:#038048;stroke-width:1.0;"/><text fill="#000000" font-family="sans-serif" font-size="14" lengthAdjust="spacing" textLength="76" x="1122" y="91.1045">Wert : List</text><line style="stroke:#181818;stroke-width:0.5;" x1="1103" x2="1288" y1="98.0439" y2="98.0439"/></g><!--MD5=[7d3eca8af4405608f5d070395f705c9e]
link Patient to Encounter--><!--MD5=[4539c3a9f703d784fe0522566344c7a5]
link Organization to Patient--><!--MD5=[91a9d832ed333cad8d33c78c7d5a8185]
reverse link Patient to PathoReport--><g id="link_Patient_PathoReport"><path codeLine="16" d="M750.27,312.5 C750.27,312.5 586.66,312.5 586.66,312.5 " fill="none" id="Patient-backto-PathoReport" style="stroke:#181818;stroke-width:1.0;"/><polygon fill="#181818" points="755.27,312.5,746.27,308.5,750.27,312.5,746.27,316.5,755.27,312.5" style="stroke:#181818;stroke-width:1.0;"/><text fill="#000000" font-family="sans-serif" font-size="13" lengthAdjust="spacing" textLength="8" x="741.136" y="309.7899">1</text><text fill="#000000" font-family="sans-serif" font-size="13" lengthAdjust="spacing" textLength="27" x="594.5315" y="310.225">0..*</text></g><!--MD5=[f3f002b9d992f2006df3438d5d48f25e]
link PathoReport to Encounter--><g id="link_PathoReport_Encounter"><path codeLine="17" d="M586.73,421.5 C638.32,421.5 684.5,421.5 684.5,421.5 C684.5,421.5 684.5,574.03 684.5,574.03 " fill="none" id="PathoReport-to-Encounter" style="stroke:#181818;stroke-width:1.0;"/><polygon fill="#181818" points="684.5,579.03,688.5,570.03,684.5,574.03,680.5,570.03,684.5,579.03" style="stroke:#181818;stroke-width:1.0;"/><text fill="#000000" font-family="sans-serif" font-size="13" lengthAdjust="spacing" textLength="27" x="594.6051" y="424.8453">0..*</text><text fill="#000000" font-family="sans-serif" font-size="13" lengthAdjust="spacing" textLength="26" x="644.8563" y="574.4169">0..1</text></g><!--MD5=[f9136c56b82517a253e5ec11ef004161]
link PathoReport to Organization--><g id="link_PathoReport_Organization"><path codeLine="18" d="M586.84,203.5 C655.49,203.5 723.75,203.5 723.75,203.5 C723.75,203.5 723.75,92.41 723.75,92.41 " fill="none" id="PathoReport-to-Organization" style="stroke:#181818;stroke-width:1.0;"/><polygon fill="#181818" points="723.75,87.41,719.75,96.41,723.75,92.41,727.75,96.41,723.75,87.41" style="stroke:#181818;stroke-width:1.0;"/><text fill="#000000" font-family="sans-serif" font-size="13" lengthAdjust="spacing" textLength="27" x="594.7208" y="195.6046">0..*</text><text fill="#000000" font-family="sans-serif" font-size="13" lengthAdjust="spacing" textLength="8" x="702.4539" y="106.1064">1</text></g><!--MD5=[ac6627ac55edaf5aee63f4ba5dab18f5]
link ServiceRequest to Encounter--><g id="link_ServiceRequest_Encounter"><path codeLine="19" d="M508.46,610.5 C508.46,610.5 671.79,610.5 671.79,610.5 " fill="none" id="ServiceRequest-to-Encounter" style="stroke:#181818;stroke-width:1.0;"/><polygon fill="#181818" points="676.79,610.5,667.79,606.5,671.79,610.5,667.79,614.5,676.79,610.5" style="stroke:#181818;stroke-width:1.0;"/><text fill="#000000" font-family="sans-serif" font-size="13" lengthAdjust="spacing" textLength="27" x="516.0385" y="608.2473">0..*</text><text fill="#000000" font-family="sans-serif" font-size="13" lengthAdjust="spacing" textLength="8" x="662.5707" y="608.1398">1</text></g><!--MD5=[75703f386494f12714b48bf474b4bab0]
link Condition to PathoReport--><g id="link_Condition_PathoReport"><path codeLine="20" d="M138.25,302.5 C138.25,302.5 301.79,302.5 301.79,302.5 " fill="none" id="Condition-to-PathoReport" style="stroke:#181818;stroke-width:1.0;"/><polygon fill="#181818" points="306.79,302.5,297.79,298.5,301.79,302.5,297.79,306.5,306.79,302.5" style="stroke:#181818;stroke-width:1.0;"/><text fill="#000000" font-family="sans-serif" font-size="13" lengthAdjust="spacing" textLength="27" x="273.4369" y="299.7093">0..*</text></g><!--MD5=[176dff29c694609b3427223c4d33ae53]
reverse link Condition to ServiceRequest--><g id="link_Condition_ServiceRequest"><path codeLine="21" d="M144.98,322.5 C144.98,322.5 265.75,322.5 265.75,322.5 C265.75,322.5 265.75,433.75 265.75,517.85 " fill="none" id="Condition-backto-ServiceRequest" style="stroke:#181818;stroke-width:1.0;"/><polygon fill="#181818" points="139.98,322.5,148.98,326.5,144.98,322.5,148.98,318.5,139.98,322.5" style="stroke:#181818;stroke-width:1.0;"/><text fill="#000000" font-family="sans-serif" font-size="13" lengthAdjust="spacing" textLength="113" x="151.75" y="356.8598">KlinischeAngaben</text><text fill="#000000" font-family="sans-serif" font-size="13" lengthAdjust="spacing" textLength="27" x="146.0445" y="320.913">0..*</text></g><!--MD5=[953bab0333231128fb75b14590dfae20]
reverse link PathoReport to Section--><g id="link_PathoReport_Section"><path codeLine="34" d="M601.19,268.5 C601.19,268.5 1044.19,268.5 1044.19,268.5 " fill="none" id="PathoReport-backto-Section" style="stroke:#181818;stroke-width:1.0;"/><polygon fill="none" points="588.19,268.5,594.19,272.5,600.19,268.5,594.19,264.5,588.19,268.5" style="stroke:#181818;stroke-width:1.0;"/><text fill="#000000" font-family="sans-serif" font-size="13" lengthAdjust="spacing" textLength="8" x="594.4996" y="263.7978">1</text><text fill="#000000" font-family="sans-serif" font-size="13" lengthAdjust="spacing" textLength="27" x="1009.6106" y="263.1681">1..*</text></g><!--MD5=[bfdf9cb5ea09a414720e7afc4fe8dca5]
link Section to Section--><g id="link_Section_Section"><path codeLine="35" d="M1073.25,253.67 C1073.25,244.24 1073.25,237.5 1073.25,237.5 C1073.25,237.5 972.5,237.5 972.5,237.5 C972.5,237.5 972.5,387.5 972.5,387.5 C972.5,387.5 1061.83,387.5 1061.83,387.5 C1061.83,387.5 1061.83,380.31 1061.83,370.37 " fill="none" id="Section-Section" style="stroke:#181818;stroke-width:1.0;"/><text fill="#000000" font-family="sans-serif" font-size="13" lengthAdjust="spacing" textLength="166" x="889.5" y="326.3498">enthaelt Unterabschnitte</text><text fill="#000000" font-family="sans-serif" font-size="13" lengthAdjust="spacing" textLength="27" x="1035.5195" y="243.3528">0..*</text><text fill="#000000" font-family="sans-serif" font-size="13" lengthAdjust="spacing" textLength="8" x="1043.9244" y="391.0989">1</text></g><!--MD5=[df1ca6f457e9d87f7a8d8cf0691b5ef5]
link PathoReport to ServiceRequest--><g id="link_PathoReport_ServiceRequest"><path codeLine="78" d="M408.25,438.38 C408.25,438.38 408.25,511.26 408.25,511.26 " fill="none" id="PathoReport-to-ServiceRequest" style="stroke:#181818;stroke-width:1.0;"/><polygon fill="#181818" points="408.25,516.26,412.25,507.26,408.25,511.26,404.25,507.26,408.25,516.26" style="stroke:#181818;stroke-width:1.0;"/><text fill="#000000" font-family="sans-serif" font-size="13" lengthAdjust="spacing" textLength="87" x="320.25" y="471.8898">ServiceEvent</text><text fill="#000000" font-family="sans-serif" font-size="13" lengthAdjust="spacing" textLength="26" x="379.2293" y="459.2078">0..1</text><text fill="#000000" font-family="sans-serif" font-size="13" lengthAdjust="spacing" textLength="27" x="383.7637" y="507.3094">1..*</text></g><!--MD5=[2561118bbdf5b04ad345c4a9b49a62fd]
reverse link Section to PathoFinding--><g id="link_Section_PathoFinding"><path codeLine="91" d="M1257.28,312.5 C1257.28,312.5 1430.05,312.5 1430.05,312.5 " fill="none" id="Section-backto-PathoFinding" style="stroke:#181818;stroke-width:1.0;"/><polygon fill="none" points="1244.28,312.5,1250.28,316.5,1256.28,312.5,1250.28,308.5,1244.28,312.5" style="stroke:#181818;stroke-width:1.0;"/><text fill="#000000" font-family="sans-serif" font-size="13" lengthAdjust="spacing" textLength="8" x="1250.3539" y="310.083">1</text><text fill="#000000" font-family="sans-serif" font-size="13" lengthAdjust="spacing" textLength="27" x="1395.6152" y="310.2057">0..*</text></g><!--MD5=[827b9cf3d0081f8adbcb2a62d9c1ab72]
link PathoFinding to Specimen--><g id="link_PathoFinding_Specimen"><path codeLine="102" d="M1459.5,404.45 C1459.5,470.78 1459.5,548.5 1459.5,548.5 C1459.5,548.5 1349.51,548.5 1349.51,548.5 " fill="none" id="PathoFinding-to-Specimen" style="stroke:#181818;stroke-width:1.0;"/><polygon fill="#181818" points="1344.51,548.5,1353.51,552.5,1349.51,548.5,1353.51,544.5,1344.51,548.5" style="stroke:#181818;stroke-width:1.0;"/><text fill="#000000" font-family="sans-serif" font-size="13" lengthAdjust="spacing" textLength="27" x="1424.3461" y="425.1984">1..*</text><text fill="#000000" font-family="sans-serif" font-size="13" lengthAdjust="spacing" textLength="27" x="1350.2656" y="543.2449">0..*</text></g><!--MD5=[eb6dbf96778b637ef551fbf6831c05ab]
link Section to Specimen--><g id="link_Section_Specimen"><path codeLine="103" d="M1185.17,370.16 C1185.17,417.17 1185.17,483.67 1185.17,534.73 " fill="none" id="Section-Specimen" style="stroke:#181818;stroke-width:1.0;"/><text fill="#000000" font-family="sans-serif" font-size="13" lengthAdjust="spacing" textLength="8" x="1181.761" y="391.2773">1</text><text fill="#000000" font-family="sans-serif" font-size="13" lengthAdjust="spacing" textLength="27" x="1154.5782" y="524.3009">0..*</text></g><!--MD5=[fdccb56b581ce60499d2e90494f51c03]
link ServiceRequest to Specimen--><g id="link_ServiceRequest_Specimen"><path codeLine="104" d="M508.16,558.5 C508.16,558.5 1063.6,558.5 1063.6,558.5 " fill="none" id="ServiceRequest-to-Specimen" style="stroke:#181818;stroke-width:1.0;"/><polygon fill="#181818" points="1068.6,558.5,1059.6,554.5,1063.6,558.5,1059.6,562.5,1068.6,558.5" style="stroke:#181818;stroke-width:1.0;"/><text fill="#000000" font-family="sans-serif" font-size="13" lengthAdjust="spacing" textLength="26" x="516.1862" y="553.5452">0..1</text><text fill="#000000" font-family="sans-serif" font-size="13" lengthAdjust="spacing" textLength="27" x="1035.3813" y="553.546">0..*</text></g><!--MD5=[9bf93b75acad649b716fd5415103efb2]
link Specimen to Specimen--><g id="link_Specimen_Specimen"><path codeLine="105" d="M1127.83,534.51 C1127.83,529.56 1127.83,526.5 1127.83,526.5 C1127.83,526.5 1053.17,526.5 1053.17,526.5 C1053.17,526.5 1053.17,693.5 1053.17,693.5 C1053.17,693.5 1074.5,693.5 1074.5,693.5 C1074.5,693.5 1074.5,690.44 1074.5,685.49 " fill="none" id="Specimen-Specimen" style="stroke:#181818;stroke-width:1.0;"/><text fill="#000000" font-family="sans-serif" font-size="13" lengthAdjust="spacing" textLength="177" x="870.17" y="575.3998">gewonnen||bearbeitet aus</text><text fill="#000000" font-family="sans-serif" font-size="13" lengthAdjust="spacing" textLength="27" x="1091.325" y="524.0582">0..*</text><text fill="#000000" font-family="sans-serif" font-size="13" lengthAdjust="spacing" textLength="26" x="1036.4922" y="705.4619">0..1</text></g><!--MD5=[666af45445cba202183c7b238c58765b]
link Specimen to Collection--><g id="link_Specimen_Collection"><path codeLine="113" d="M1198.5,685.31 C1198.5,719.77 1198.5,759.64 1198.5,790.27 " fill="none" id="Specimen-Collection" style="stroke:#181818;stroke-width:1.0;"/><text fill="#000000" font-family="sans-serif" font-size="13" lengthAdjust="spacing" textLength="27" x="1169.518" y="706.0467">1..*</text><text fill="#000000" font-family="sans-serif" font-size="13" lengthAdjust="spacing" textLength="8" x="1189.8875" y="779.6343">1</text></g><!--MD5=[e5933764bde36f9ad502a53b08737d07]
link Specimen to Processing--><g id="link_Specimen_Processing"><path codeLine="122" d="M1330.5,685.36 C1330.5,733.34 1330.5,786.5 1330.5,786.5 C1330.5,786.5 1413.62,786.5 1488.3,786.5 " fill="none" id="Specimen-Processing" style="stroke:#181818;stroke-width:1.0;"/><text fill="#000000" font-family="sans-serif" font-size="13" lengthAdjust="spacing" textLength="27" x="1313.6867" y="706.1013">0..*</text><text fill="#000000" font-family="sans-serif" font-size="13" lengthAdjust="spacing" textLength="27" x="1453.3964" y="780.8752">0..*</text></g><!--MD5=[ff225fac9e298ff4260228f55f0dde40]
link Specimen to Container--><g id="link_Specimen_Container"><path codeLine="130" d="M1342.75,610.5 C1404.05,610.5 1474.86,610.5 1530.03,610.5 " fill="none" id="Specimen-Container" style="stroke:#181818;stroke-width:1.0;"/><text fill="#000000" font-family="sans-serif" font-size="13" lengthAdjust="spacing" textLength="27" x="1350.4715" y="608.2272">0..*</text><text fill="#000000" font-family="sans-serif" font-size="13" lengthAdjust="spacing" textLength="27" x="1495.5087" y="608.1042">1..*</text></g><!--MD5=[dc4d42b8865d3b936422aacc899dfe1d]
link Media to PathoFinding--><g id="link_Media_PathoFinding"><path codeLine="137" d="M1552.5,97.83 C1552.5,130.67 1552.5,177.85 1552.5,219.57 " fill="none" id="Media-PathoFinding" style="stroke:#181818;stroke-width:1.0;"/><text fill="#000000" font-family="sans-serif" font-size="13" lengthAdjust="spacing" textLength="27" x="1523.3484" y="118.7435">0..*</text><text fill="#000000" font-family="sans-serif" font-size="13" lengthAdjust="spacing" textLength="8" x="1544.1688" y="209.3926">1</text></g><!--MD5=[cf3269188e4c17054ecc61c062ecb9a3]
link ROI to Media--><g id="link_ROI_Media"><path codeLine="145" d="M1289.3,56.5 C1341.56,56.5 1406.44,56.5 1458.71,56.5 " fill="none" id="ROI-Media" style="stroke:#181818;stroke-width:1.0;"/><text fill="#000000" font-family="sans-serif" font-size="13" lengthAdjust="spacing" textLength="27" x="1296.8445" y="54.069">0..*</text><text fill="#000000" font-family="sans-serif" font-size="13" lengthAdjust="spacing" textLength="8" x="1442.9174" y="54.0028">1</text></g><!--MD5=[bf71f46f8847dd146365fa3bf05768e9]
@startuml "Patho"

skinparam Linetype ortho
skinparam Nodesep 170
skinparam Ranksep 80

together {
  class "Patient:in" as Patient <<from Person>> #PeachPuff 
  class "Gesundheitseinrichtung" as Organization <<from Strukturdaten>> #LightPink
  class "Versorgungsstellenkontakt" as Encounter <<from Fall>> #PaleGreen
}

class "Diagnose" as Condition <<from Diagnose>> #MediumSlateBlue

Patient -[hidden]- Encounter
Organization -[hidden]- Patient
Patient "1" <- "0..*" PathoReport
PathoReport "0..*" -> "0..1" Encounter
PathoReport "0..*" -> "1" Organization
ServiceRequest "0..*" -> "1" Encounter
Condition -> "0..*" PathoReport 
ServiceRequest -l-> "0..*" Condition : KlinischeAngaben

together {
  class "Pathologiebefundbericht" as PathoReport #MediumTurquoise 
  class "Untersuchungsauftrag" as ServiceRequest #PaleTurquoise
}

together {
  class "Beobachtungsabschnitt" as Section #PaleTurquoise 
  class "GenerischeBeobachtung" as PathoFinding #PaleTurquoise 

}

Section "1..*" -l-o "1" PathoReport
Section "0..*" - "1" Section : enthaelt Unterabschnitte

together {
  class "Probe" as Specimen #PaleTurquoise 
  class "Entnahme" as Collection #PaleTurquoise 

}


class "Pathologiebefundbericht" as PathoReport #MediumTurquoise {
  +Identifikator : id
  +SetID : identifier
  +Versionsnummer : int
  +Titel : String
  +Code : code
  +Status : code
  +Dokumentationsdatum : datetime
  +Autor : Reference
  +LegalerAuthetikator : Reference
  +ServiceEvent : Reference
  +zugehoerigesDokument : Reference
  +Kommentar : String
}

class "Beobachtungsabschnitt" as Section #PaleTurquoise {
  +Identifikation : identifier
  +Code : code
  +Title : String
  +Text : String
}


class "Untersuchungsauftrag" as ServiceRequest #PaleTurquoise {
  +AuftragsgruppenID : identifier
  +AuftraggeberAuftragsID : identifier
  +AuftragnehmerAuftragsID : identifier
  +Status : code
  +KlinischeAngaben : Reference
  +Patient : Reference
  +Einsender : Reference
  +Probenentnehmer : Reference
}

ServiceRequest "1..*" <-u- "0..1" PathoReport : ServiceEvent

class "GenerischeBeobachtung" as PathoFinding #PaleTurquoise {
  +Identifikation : id
  +Code : code 
  +Status : code
  +Text : String
  +Befundzeit : datetime
  +Prioritaet : code
  +Wert : Quantity
  +Untersuchungsmethode : code
}

PathoFinding "0..*" -l-o "1" Section

class "Probe" as Specimen #PaleTurquoise {
  +Identifikator : id
  +Status : code
  +Probenart : code
  +Laboreingangszeitpunkt : datetime
  +Kommentar : String
  +Eigenschaften : code
}

Specimen "0..*" <-u- "1..*" PathoFinding
Specimen "0..*" -l- "1" Section
Specimen "0..*" <-l- "0..1" ServiceRequest
Specimen "0..*" - "0..1" Specimen : gewonnen||bearbeitet aus

class "Entnahme" as Collection #PaleTurquoise {
  +Entnahmezeitpunkt : datetime
  +Herkunft : code
  +Gewinnungsmethode : code
}

Collection "1" -u- "1..*" Specimen

class "Bearbeitung" as Processing #PaleTurquoise {
  +Bearbeitungsprozedur : code 
  +Elternprobe : identifier
  +Additive : code
  +Beschreibung : String
}

Processing "0..*" -u- "0..*" Specimen

class "Container" as Container #PaleTurquoise {
  +ContainerID : identifier
  +Additive : code
  +ContainerTyp : code
}

Container "1..*" -l- "0..*" Specimen

class "EingebettetesBild" as Media #PaleTurquoise {
  +Identifikator : identifier
  +Wert : String
}

Media "0..*" -d- "1" PathoFinding

class "RegionOfInterest" as ROI #PaleTurquoise {
  +Identifikator : identifier
  +Code : code
  +Wert : List
}

ROI "0..*" - "1" Media

@enduml

PlantUML version 1.2022.7(Mon Aug 22 17:01:30 GMT 2022)
(GPL source distribution)
Java Runtime: OpenJDK Runtime Environment
JVM: OpenJDK 64-Bit Server VM
Default Encoding: UTF-8
Language: en
Country: US
--></g></svg>